<svg width="720" height="1024" viewBox="0 0 720 1024" fill="none" xmlns="http://www.w3.org/2000/svg">
<g clip-path="url(#clip0_2145_962)">
<rect width="720" height="1024" fill="#3C3CEF"/>
<rect x="86.5322" y="0.467773" width="386.833" height="386.833" transform="rotate(-45 86.5322 0.467773)" fill="#6363F2"/>
<rect x="141.79" y="0.467773" width="308.687" height="308.687" transform="rotate(-45 141.79 0.467773)" fill="#8A8AF5"/>
<rect x="203.266" y="0.467773" width="221.747" height="221.747" transform="rotate(-45 203.266 0.467773)" fill="#B1B1F9"/>
<rect x="257.911" y="0.467773" width="144.467" height="144.467" transform="rotate(-45 257.911 0.467773)" fill="#D8D8FC"/>
<rect x="97.6611" y="1024.4" width="371.094" height="371.094" transform="rotate(-45 97.6611 1024.4)" fill="#6363F2"/>
<rect x="150.67" y="1024.4" width="296.128" height="296.128" transform="rotate(-45 150.67 1024.4)" fill="#8A8AF5"/>
<rect x="209.645" y="1024.4" width="212.725" height="212.725" transform="rotate(-45 209.645 1024.4)" fill="#B1B1F9"/>
<rect x="262.067" y="1024.4" width="138.589" height="138.589" transform="rotate(-45 262.067 1024.4)" fill="#D8D8FC"/>
<g clip-path="url(#clip1_2145_962)">
<path d="M591.229 507.505L591.518 506.375C593.286 499.336 593.475 491.999 592.085 484.883L575.821 401.586C573.797 391.256 562.113 386.035 553.042 391.433L466.362 442.963C460.826 446.255 457.168 451.963 456.513 458.359L453.722 485.359L506.962 523.921L577.989 518.623C584.348 518.146 589.684 513.668 591.229 507.505Z" fill="#D8D8FC" stroke="#3C3CEF" stroke-miterlimit="10"/>
<path d="M553.353 400.821L472.61 447.474C466.307 451.11 462.227 457.638 461.726 464.887L459.414 498.239L555.91 525.761L574.331 520.063C583.414 516.173 588.572 506.519 586.749 496.831L570.173 408.525C568.739 400.866 560.123 396.92 553.364 400.833L553.353 400.821Z" fill="#6363F2" stroke="#3C3CEF" stroke-miterlimit="10"/>
<path d="M395.458 446.654C401.617 445.679 409.354 462.205 412.767 483.553C416.18 504.901 413.945 523.012 407.787 523.988L394.457 526.105C400.616 525.129 402.839 507.029 399.438 485.67C396.036 464.311 388.287 447.796 382.128 448.771L395.458 446.654Z" fill="#D8D8FC" stroke="#3C3CEF" stroke-miterlimit="10"/>
<path d="M394.453 526.103C400.608 525.128 402.838 507.027 399.435 485.674C396.031 464.32 388.282 447.801 382.128 448.776C375.973 449.751 373.743 467.852 377.147 489.205C380.55 510.558 388.299 527.078 394.453 526.103Z" fill="#D8D8FC" stroke="#3C3CEF" stroke-miterlimit="10"/>
<path d="M382.707 452.385C383.274 452.296 383.863 452.418 384.474 452.728C389.11 455.133 394.502 468.9 397.237 486.014C399.971 503.127 399.115 517.88 395.458 521.604C394.98 522.092 394.457 522.391 393.89 522.48C388.966 523.256 382.462 508.204 379.372 488.851C376.281 469.498 377.782 453.161 382.707 452.385Z" fill="#D8D8FC" stroke="#3C3CEF" stroke-miterlimit="10"/>
<path d="M384.463 452.729C389.099 455.134 394.491 468.9 397.225 486.014C399.96 503.128 399.104 517.88 395.447 521.605C390.822 519.199 385.419 505.444 382.695 488.319C379.972 471.206 380.817 456.442 384.463 452.729Z" fill="#D8D8FC" stroke="#3C3CEF" stroke-miterlimit="10"/>
<path d="M362.84 427.102C358.038 431.891 340.617 422.27 323.92 405.61C307.222 388.962 297.572 371.582 302.364 366.805L312.747 356.453C307.944 361.241 317.594 378.61 334.303 395.258C351.012 411.906 368.432 421.527 373.224 416.75L362.84 427.102Z" fill="#D8D8FC" stroke="#3C3CEF" stroke-miterlimit="10"/>
<path d="M373.238 416.743C378.036 411.96 368.385 394.584 351.684 377.932C334.982 361.28 317.554 351.658 312.756 356.441C307.959 361.224 317.609 378.601 334.311 395.253C351.013 411.905 368.441 421.527 373.238 416.743Z" fill="#D8D8FC" stroke="#3C3CEF" stroke-miterlimit="10"/>
<path d="M370.4 413.923C369.955 414.367 369.355 414.633 368.621 414.743C362.996 415.575 349.411 406.885 336.026 393.54C322.641 380.194 313.925 366.65 314.77 361.041C314.881 360.31 315.148 359.711 315.593 359.268C319.439 355.433 334.825 364.566 349.956 379.651C365.097 394.748 374.247 410.088 370.411 413.923H370.4Z" fill="#D8D8FC" stroke="#3C3CEF" stroke-miterlimit="10"/>
<path d="M368.621 414.743C362.996 415.575 349.411 406.885 336.026 393.54C322.641 380.194 313.925 366.65 314.77 361.041C320.396 360.21 333.969 368.9 347.354 382.245C360.739 395.59 369.455 409.135 368.621 414.743Z" fill="#D8D8FC" stroke="#3C3CEF" stroke-miterlimit="10"/>
<path d="M275.761 409.168H460.07C463.305 409.168 465.94 411.784 465.94 415.02V665.187C465.94 671.959 460.426 677.446 453.644 677.446H269.902V415.02C269.902 411.795 272.525 409.168 275.772 409.168H275.761Z" fill="#FBFBFF" stroke="#3C3CEF" stroke-miterlimit="10"/>
<path d="M338.016 425.583H288.056V431.247H338.016V425.583Z" fill="#D8D8FC" stroke="#3C3CEF" stroke-miterlimit="10"/>
<path d="M338.016 437.465H288.056V443.129H338.016V437.465Z" fill="#D8D8FC" stroke="#3C3CEF" stroke-miterlimit="10"/>
<path d="M338.016 449.359H288.056V455.023H338.016V449.359Z" fill="#D8D8FC" stroke="#3C3CEF" stroke-miterlimit="10"/>
<path d="M448.431 468.877H288.056V474.541H448.431V468.877Z" fill="#D8D8FC" stroke="#3C3CEF" stroke-miterlimit="10"/>
<path d="M448.431 480.771H288.056V486.435H448.431V480.771Z" fill="#D8D8FC" stroke="#3C3CEF" stroke-miterlimit="10"/>
<path d="M448.431 492.653H288.056V498.317H448.431V492.653Z" fill="#D8D8FC" stroke="#3C3CEF" stroke-miterlimit="10"/>
<path d="M448.431 504.535H288.056V655.943H448.431V504.535Z" fill="#D8D8FC" stroke="#3C3CEF" stroke-miterlimit="10"/>
<path d="M453.634 677.446H248.513L155.786 517.082C154.529 514.899 156.108 512.183 158.62 512.183H358.627C363.074 512.183 367.132 514.744 369.033 518.756L439.971 668.812C442.461 674.088 447.786 677.446 453.634 677.446Z" fill="#6363F2" stroke="#3C3CEF" stroke-miterlimit="10"/>
<path d="M448.431 437.465H398.471V443.129H448.431V437.465Z" fill="#D8D8FC" stroke="#3C3CEF" stroke-miterlimit="10"/>
<path d="M448.431 449.359H398.471V455.023H448.431V449.359Z" fill="#D8D8FC" stroke="#3C3CEF" stroke-miterlimit="10"/>
<path d="M286.111 677.446H110.005C103.546 677.446 98.9885 671.117 101.067 665.021L151.072 517.703C152.195 514.4 155.307 512.172 158.798 512.172H358.938C348.811 512.172 346.799 518.601 343.552 528.166L295.049 671.05C293.748 674.874 290.157 677.446 286.111 677.446Z" fill="#FBFBFF" stroke="#3C3CEF" stroke-miterlimit="10"/>
<path d="M123.877 640.032H141.39V641.419H134.823V645.757H141.39V650.092H134.823V654.43H141.39V657.379H123.877V655.99H130.445V651.654H123.877V647.317H130.445V642.981H123.877V640.032Z" fill="#3C3CEF"/>
<path d="M320.873 533.076H160.499L159.387 538.74H319.762L320.873 533.076Z" fill="#D8D8FC" stroke="#3C3CEF" stroke-miterlimit="10"/>
<path d="M315.426 544.626H155.052L153.94 550.29H314.315L315.426 544.626Z" fill="#D8D8FC" stroke="#3C3CEF" stroke-miterlimit="10"/>
<path d="M311.669 556.187H151.306L150.194 561.85H310.557L311.669 556.187Z" fill="#D8D8FC" stroke="#3C3CEF" stroke-miterlimit="10"/>
<path d="M307.722 568.445H147.359L146.247 574.109H306.611L307.722 568.445Z" fill="#D8D8FC" stroke="#3C3CEF" stroke-miterlimit="10"/>
<path d="M303.564 580.715H143.19L142.078 586.368H302.453L303.564 580.715Z" fill="#D8D8FC" stroke="#3C3CEF" stroke-miterlimit="10"/>
<path d="M298.996 592.975H138.621L137.509 598.639H297.884L298.996 592.975Z" fill="#D8D8FC" stroke="#3C3CEF" stroke-miterlimit="10"/>
<path d="M288.056 628.21H230.659L229.547 633.874H286.945L288.056 628.21Z" fill="#D8D8FC" stroke="#3C3CEF" stroke-miterlimit="10"/>
<path d="M283.913 640.47H226.516L225.404 646.134H282.802L283.913 640.47Z" fill="#D8D8FC" stroke="#3C3CEF" stroke-miterlimit="10"/>
<path d="M278.742 652.739H221.345L220.233 658.392H277.63L278.742 652.739Z" fill="#D8D8FC" stroke="#3C3CEF" stroke-miterlimit="10"/>
<path d="M448.431 425.583H398.471V431.247H448.431V425.583Z" fill="#D8D8FC" stroke="#3C3CEF" stroke-miterlimit="10"/>
<path d="M152.428 381.646C155.774 375.65 175.474 380.194 196.418 391.81C217.363 403.427 231.637 417.703 228.291 423.699L221.042 436.69C224.389 430.693 210.114 416.406 189.17 404.801C168.225 393.185 148.526 388.64 145.18 394.637L152.428 381.646Z" fill="#D8D8FC" stroke="#3C3CEF" stroke-miterlimit="10"/>
<path d="M221.044 436.707C224.393 430.705 210.125 416.422 189.177 404.807C168.229 393.192 148.533 388.642 145.184 394.644C141.836 400.647 156.104 414.929 177.052 426.544C198 438.16 217.696 442.71 221.044 436.707Z" fill="#D8D8FC" stroke="#3C3CEF" stroke-miterlimit="10"/>
<path d="M148.726 396.61C149.038 396.056 149.549 395.623 150.227 395.313C155.485 392.941 171.172 397.641 187.969 406.951C204.767 416.262 217.052 427.058 217.797 432.766C217.897 433.509 217.797 434.174 217.485 434.728C214.806 439.538 197.241 434.905 178.253 424.375C159.265 413.845 146.036 401.409 148.726 396.61Z" fill="#D8D8FC" stroke="#3C3CEF" stroke-miterlimit="10"/>
<path d="M150.238 395.313C155.497 392.941 171.183 397.641 187.981 406.951C204.779 416.262 217.063 427.058 217.808 432.766C212.549 435.138 196.874 430.427 180.076 421.117C163.279 411.806 150.994 400.999 150.238 395.302V395.313Z" fill="#D8D8FC" stroke="#3C3CEF" stroke-miterlimit="10"/>
<path d="M294.459 453.914C294.459 464.156 265.488 472.447 229.747 472.447C194.006 472.447 165.035 464.145 165.035 453.914V431.746C165.035 441.988 194.006 450.279 229.747 450.279C265.488 450.279 294.459 441.977 294.459 431.746V453.914Z" fill="#FBFBFF" stroke="#3C3CEF" stroke-miterlimit="10"/>
<path d="M229.747 450.278C265.487 450.278 294.459 441.981 294.459 431.746C294.459 421.511 265.487 413.213 229.747 413.213C194.007 413.213 165.035 421.511 165.035 431.746C165.035 441.981 194.007 450.278 229.747 450.278Z" fill="#FBFBFF" stroke="#3C3CEF" stroke-miterlimit="10"/>
<path d="M288.411 431.746C288.411 432.688 288.056 433.619 287.389 434.517C282.264 441.411 258.395 446.609 229.747 446.609C201.098 446.609 177.241 441.411 172.116 434.517C171.449 433.619 171.093 432.688 171.093 431.746C171.093 423.543 197.352 416.893 229.747 416.893C262.142 416.893 288.411 423.543 288.411 431.746Z" fill="#FBFBFF" stroke="#3C3CEF" stroke-miterlimit="10"/>
<path d="M287.389 434.517C282.264 441.411 258.396 446.609 229.747 446.609C201.098 446.609 177.241 441.411 172.116 434.517C177.241 427.633 201.098 422.435 229.747 422.435C258.396 422.435 282.264 427.633 287.389 434.517Z" fill="#FBFBFF" stroke="#3C3CEF" stroke-miterlimit="10"/>
<path d="M454.823 477.268L355.514 533.032C348.422 537.022 348.811 547.342 356.204 550.767L434.434 587.089C441.938 590.569 450.621 590.481 458.047 586.856L582.691 525.938C576.199 525.938 569.807 524.265 564.148 521.083L486.518 477.302C476.679 471.76 464.65 471.748 454.812 477.268H454.823Z" fill="#D8D8FC" stroke="#3C3CEF" stroke-miterlimit="10"/>
<path d="M582.691 525.927C582.691 525.927 599.445 521.272 598.622 500.356L581.313 403.349L580.424 401.431C578.422 397.098 574.676 393.817 570.096 392.398C572.919 394.548 575.043 397.696 575.799 401.576L592.063 484.872C593.453 491.988 593.264 499.326 591.496 506.364C589.817 513.059 583.703 517.692 576.777 517.526C572.731 517.426 568.762 516.295 565.271 514.245L490.009 470.097C479.414 463.879 466.307 463.713 455.557 469.654L356.915 524.143C352.568 526.548 349.956 531.203 350.167 536.158L350.412 541.622C350.434 538.275 352.113 534.916 355.503 533.021L454.812 477.257C464.662 471.726 476.69 471.737 486.518 477.291L564.148 521.072C569.807 524.265 576.188 525.938 582.691 525.927Z" fill="#FBFBFF" stroke="#3C3CEF" stroke-miterlimit="10"/>
<path d="M379.85 519.366L423.795 541.101C429.232 543.795 435.624 543.75 441.027 540.991L467.13 527.668C472.377 524.996 472.666 517.636 467.663 514.544L429.876 491.268L379.85 519.355V519.366Z" fill="#D8D8FC" stroke="#3C3CEF" stroke-miterlimit="10"/>
<path d="M617.754 362.471C624.347 369.043 611.095 392.907 588.15 415.774C565.215 438.64 541.269 451.863 534.688 445.291L520.414 431.059C527.006 437.631 550.941 424.419 573.875 401.542C596.81 378.676 610.073 354.801 603.48 348.239L617.754 362.471Z" fill="#FBFBFF" stroke="#3C3CEF" stroke-miterlimit="10"/>
<path d="M573.887 401.54C596.828 378.668 610.082 354.8 603.492 348.229C596.901 341.658 572.962 354.873 550.022 377.745C527.081 400.618 513.827 424.486 520.417 431.057C527.008 437.627 550.947 424.413 573.887 401.54Z" fill="#FBFBFF" stroke="#3C3CEF" stroke-miterlimit="10"/>
<path d="M599.6 352.107C600.211 352.717 600.578 353.537 600.723 354.534C601.868 362.238 589.895 380.848 571.507 399.181C553.12 417.514 534.465 429.44 526.739 428.299C525.738 428.155 524.905 427.778 524.304 427.179C519.024 421.914 531.597 400.844 552.386 380.116C573.175 359.389 594.319 346.842 599.6 352.107Z" fill="#FBFBFF" stroke="#3C3CEF" stroke-miterlimit="10"/>
<path d="M600.734 354.546C601.879 362.249 589.906 380.859 571.519 399.192C553.131 417.525 534.477 429.451 526.75 428.31C525.605 420.617 537.578 402.007 555.966 383.674C574.354 365.341 593.019 353.404 600.734 354.546Z" fill="#FBFBFF" stroke="#3C3CEF" stroke-miterlimit="10"/>
<path d="M110.872 554.713C105.736 549.592 116.064 530.993 133.94 513.17C151.816 495.346 170.471 485.049 175.607 490.17L186.724 501.254C181.588 496.133 162.934 506.431 145.057 524.254C127.181 542.077 116.853 560.676 121.989 565.797L110.872 554.713Z" fill="#D8D8FC" stroke="#3C3CEF" stroke-miterlimit="10"/>
<path d="M163.657 542.792C181.536 524.967 191.865 506.366 186.729 501.245C181.593 496.125 162.937 506.424 145.058 524.249C127.18 542.074 116.851 560.675 121.986 565.796C127.122 570.917 145.779 560.618 163.657 542.792Z" fill="#D8D8FC" stroke="#3C3CEF" stroke-miterlimit="10"/>
<path d="M125.025 562.782C124.546 562.305 124.257 561.662 124.146 560.886C123.246 554.879 132.584 540.381 146.914 526.093C161.244 511.806 175.785 502.507 181.81 503.404C182.6 503.526 183.245 503.815 183.711 504.28C187.825 508.381 178.031 524.808 161.822 540.957C145.613 557.118 129.138 566.883 125.025 562.782Z" fill="#D8D8FC" stroke="#3C3CEF" stroke-miterlimit="10"/>
<path d="M124.146 560.886C123.246 554.879 132.584 540.381 146.914 526.093C161.244 511.806 175.785 502.507 181.81 503.404C182.7 509.401 173.373 523.899 159.043 538.186C144.713 552.473 130.161 561.773 124.146 560.886Z" fill="#D8D8FC" stroke="#3C3CEF" stroke-miterlimit="10"/>
<path d="M381.474 614.757C377.406 609.228 389.736 593.22 409.023 579.019C428.31 564.818 447.246 557.78 451.315 563.309L460.13 575.288C456.061 569.758 437.115 576.792 417.838 590.998C398.551 605.199 386.221 621.206 390.289 626.736L381.474 614.757Z" fill="#D8D8FC" stroke="#3C3CEF" stroke-miterlimit="10"/>
<path d="M460.153 575.305C456.079 569.773 437.139 576.8 417.849 590.999C398.56 605.199 386.225 621.195 390.299 626.727C394.373 632.259 413.313 625.232 432.602 611.033C451.892 596.833 464.227 580.837 460.153 575.305Z" fill="#D8D8FC" stroke="#3C3CEF" stroke-miterlimit="10"/>
<path d="M393.566 624.335C393.191 623.822 393.01 623.178 393.009 622.433C393.036 616.672 403.838 604.375 419.301 592.983C434.764 581.591 449.702 574.916 455.21 576.609C455.928 576.827 456.492 577.194 456.867 577.707C460.133 582.138 448.61 596.169 431.126 609.044C413.642 621.919 396.817 628.771 393.566 624.335Z" fill="#D8D8FC" stroke="#3C3CEF" stroke-miterlimit="10"/>
<path d="M393.013 622.423C393.04 616.661 403.842 604.365 419.304 592.973C434.767 581.581 449.705 574.906 455.213 576.6C455.186 582.361 444.379 594.643 428.916 606.035C413.453 617.427 398.505 624.097 393.003 622.418L393.013 622.423Z" fill="#D8D8FC" stroke="#3C3CEF" stroke-miterlimit="10"/>
</g>
</g>
<defs>
<clipPath id="clip0_2145_962">
<rect width="720" height="1024" fill="white"/>
</clipPath>
<clipPath id="clip1_2145_962">
<rect width="520" height="332" fill="white" transform="translate(100 346)"/>
</clipPath>
</defs>
</svg>
